<svg xmlns="http://www.w3.org/2000/svg" viewBox="0 0 128 128">
  <!-- Banana emoji style favicon -->
  <defs>
    <linearGradient id="bananaGrad" x1="0%" y1="0%" x2="100%" y2="100%">
      <stop offset="0%" style="stop-color:#FFE135"/>
      <stop offset="50%" style="stop-color:#FFD700"/>
      <stop offset="100%" style="stop-color:#E6B800"/>
    </linearGradient>
  </defs>
  <!-- Main banana body -->
  <path d="M 20 95 Q 15 70 30 45 Q 50 15 85 10 Q 100 8 108 15 Q 115 22 110 35 Q 100 60 75 85 Q 55 105 30 105 Q 20 105 20 95 Z" fill="url(#bananaGrad)" stroke="#C4A000" stroke-width="2"/>
  <!-- Banana tip -->
  <path d="M 108 15 Q 115 10 118 15 Q 120 22 115 28 Q 112 25 110 35 Q 115 22 108 15 Z" fill="#8B6914" stroke="#5C4A00" stroke-width="1"/>
  <!-- Banana spots/details -->
  <ellipse cx="55" cy="50" rx="4" ry="2" fill="#C4A000" opacity="0.3"/>
  <ellipse cx="70" cy="65" rx="3" ry="1.5" fill="#C4A000" opacity="0.3"/>
  <ellipse cx="45" cy="75" rx="3" ry="1.5" fill="#C4A000" opacity="0.3"/>
</svg>
