<svg xmlns="http://www.w3.org/2000/svg" viewBox="0 0 64 64" fill="none">
  <!-- Banana body -->
  <path 
    d="M12 48c-2-8 2-20 12-28s24-10 32-6c-4 1-10 4-18 12s-14 18-14 26c0 4-2 6-6 4s-4-4-6-8z" 
    fill="#FFD93D"
    stroke="#E6B800"
    stroke-width="1.5"
  />
  <!-- Banana highlight -->
  <path 
    d="M18 44c-1-6 2-14 10-22s18-10 24-8c-3 1-8 4-14 10s-12 14-12 22c0 2-1 3-4 2s-3-2-4-4z" 
    fill="#FFE566"
    opacity="0.6"
  />
  <!-- Banana tip -->
  <path 
    d="M54 14c2-1 4-2 5-4-2 1-4 3-5 4z" 
    fill="#8B7355"
    stroke="#6B5344"
    stroke-width="1"
  />
  <!-- Stem -->
  <path 
    d="M56 10c1-2 3-4 4-4-1 2-2 4-4 4z" 
    fill="#8B7355"
    stroke="#6B5344"
    stroke-width="0.5"
  />
</svg>